<svg xmlns="http://www.w3.org/2000/svg" xmlns:xlink="http://www.w3.org/1999/xlink" width="1400" height="980" xmlns:v="https://vecta.io/nano"><style><![CDATA[.B{fill:#ff5757}.C{fill:#ec9c7d}.D{fill:#fff}.E{fill:#2f3554}.F{fill:#505365}.G{fill:#3e3e54}]]></style><defs><linearGradient id="A" x1="170.8" y1="25.17" x2="164.89" y2="276.88" gradientUnits="userSpaceOnUse"><stop offset=".01"/><stop offset=".08" stop-opacity=".69"/><stop offset=".21" stop-opacity=".32"/><stop offset="1" stop-opacity="0"/></linearGradient><linearGradient id="B" x1="285.63" y1="203.98" x2="166.44" y2="198.71" xlink:href="#A"/><linearGradient id="C" x1="173.97" y1="171.07" x2="108.65" y2="150.51" xlink:href="#A"/><linearGradient id="D" x1="196.19" y1="180.26" x2="184.23" y2="180.26" gradientUnits="userSpaceOnUse"><stop offset="0" stop-color="#e5c5d5"/><stop offset=".42" stop-color="#ead4d1"/><stop offset="1" stop-color="#f0e9cb"/></linearGradient><linearGradient id="E" x1="205.96" y1="182.54" x2="228.83" y2="249.73" gradientUnits="userSpaceOnUse"><stop offset="0" stop-opacity="0"/><stop offset=".99"/></linearGradient><linearGradient id="F" x1="210.02" y1="160.12" x2="222.94" y2="160.12" xlink:href="#D"/><linearGradient id="G" x1="268.62" y1="233.08" x2="203.11" y2="167.57" xlink:href="#A"/><linearGradient id="H" x1="211.86" y1="203.66" x2="261.87" y2="203.66" xlink:href="#A"/><linearGradient id="I" x1="174.2" y1="184.37" x2="183.57" y2="184.37" xlink:href="#D"/><linearGradient id="J" x1="174.94" y1="187.6" x2="154.79" y2="246.8" xlink:href="#D"/><linearGradient id="K" x1="164.45" y1="219.51" x2="185.62" y2="243.51" xlink:href="#D"/><linearGradient id="L" x1="139.63" y1="219.52" x2="175.14" y2="196.01" xlink:href="#A"/><linearGradient id="M" x1="161.38" y1="160.13" x2="150.67" y2="160.13" xlink:href="#D"/><linearGradient id="N" x1="111.97" y1="221.74" x2="167.51" y2="166.2" xlink:href="#A"/><path id="O" d="M122.99 168.59s-.69 8.29 2.24 9.25 13.74 4.26 13.74 4.26l4.17 11.35c1.71 4.68 4 9.46 5.25 14.29a27.56 27.56 0 0 1 .44 4.16 2.26 2.26 0 0 0 .28 1.08 2.33 2.33 0 0 0 1.71.76q4.06.51 8.16.71a1.64 1.64 0 0 0 1-.14 1.34 1.34 0 0 0 .54-.83 3 3 0 0 0-.9-3c-.88-.78-2.12-1-3.11-1.6-2.14-1.37-2.32-5.2-2.91-7.54l-2.19-8.82-4.21-16.72c-.06-.26-.26-2-.52-2.1l-11.78-6s-6.84-2.58-11.91.89z"/></defs><g transform="matrix(3.15742 0 0 3.15742 155.66087 -.000002)"><path d="M337.89 211.06c-2.56 10.08-7 20.15-10.89 29.13-6.48 14.87-14.44 29.64-26.9 40-24.64 20.53-59.94 19.32-91.7 23.76-39.54 5.53-80.48 11.61-119.62-1-28.17-9.11-54-29-64.39-56.76-5.08-13.54-6.31-28.18-7.5-42.6-1.28-15.52-2.11-30.34-6.25-45.22-4.43-15.92-9-32.5-10.33-49-2.34-30 8.74-60.91 30.25-81.9s53.2-31.33 82.8-26.15c22.09 3.87 41.88 15.6 61.37 26.7 13.24 7.55 27.22 15.08 42.45 15.67 20.08.77 39.36-10.69 59.36-8.76 24.74 2.39 42.88 24.3 54.45 46.31a134.7 134.7 0 0 1 9.31 21.42 95.83 95.83 0 0 1 2.84 46.77c-3 16-2.64 31-3.1 47.4a65.81 65.81 0 0 1-2.15 14.23z" opacity=".18" class="B"/><path d="M271.29 230.5a105.31 20.47 0 0 1-105.31 20.47A105.31 20.47 0 0 1 60.67 230.5a105.31 20.47 0 0 1 105.31-20.47 105.31 20.47 0 0 1 105.31 20.47z" fill="url(#A)"/><path d="M238.22 191.48l9.16 34.4a1.32 1.32 0 0 1-.95 1.61 1.12 1.12 0 0 1-.32 0h0a1.3 1.3 0 0 1-1.27-1l-9.17-34.39a1.33 1.33 0 0 1 .95-1.62h0a1.3 1.3 0 0 1 1.59.92zm-16.92-.01l-6.76 34.16a1.41 1.41 0 0 0 1.16 1.62h.22a1.23 1.23 0 0 0 1.21-1l6.77-34.15a1.41 1.41 0 0 0-1.06-1.61h0a1.24 1.24 0 0 0-1.52.85s-.02.09-.02.13zm10.78.14l5.88 34.27a1.45 1.45 0 0 1-1.24 1.64h-.18a1.18 1.18 0 0 1-1.18-1l-5.9-34.27a1.46 1.46 0 0 1 1.1-1.61h0a1.19 1.19 0 0 1 1.48.8.75.75 0 0 1 .04.17zm-17.43.19l-12 34.12a1.21 1.21 0 0 0 .68 1.56 1.33 1.33 0 0 0 .45.08h0a1.44 1.44 0 0 0 1.35-1l12-34.11a1.19 1.19 0 0 0-.66-1.55h-.15a1.44 1.44 0 0 0-1.67.9z" class="B"/><path d="M219.77 165.39c3-5.29 7.07-10.52 12.89-12.27 3.59-1.09 7.46-.71 11.16-.08a21.33 21.33 0 0 1 7.92 2.61 8.74 8.74 0 0 1 4.35 6.79 13.38 13.38 0 0 1-1 4.71l-5.48 15.77c-.72 2.07-1.5 4.24-3.15 5.69a12.88 12.88 0 0 1-5.56 2.37c-6.53 1.63-13.11 3.26-19.83 3.46s-13.68-1.16-19.17-5c-2-1.38-3.84-3.81-2.78-6 .83-1.65 3-2.09 4.84-2 4.85.2 6.26-.36 9.12-4.33 2.61-3.67 4.48-7.81 6.69-11.72z" class="F"/><path d="M215.99 160.02a9 9 0 0 1-2.54 2.82l-12.85 10.71c-1.19 1-2.51 2.29-2.27 3.83a.73.73 0 0 0 .18.42.89.89 0 0 0 .67.18 18.1 18.1 0 0 0 3.88-.51c1.34-.33 2.84-1 3.11-2.39.07-.38 0-.77.1-1.15a3.46 3.46 0 0 1 1.74-2.13c1-.67 1.89-1.44 2.85-2.12l5.86-3.81c1.41-.83 3.61-1.8 4.45-3.29s.14-3.69-.37-5.21c-.34-1-.77-1.14-1.78-1.28s-2.05-.45-2.39.67-.14 2.19-.64 3.26z" class="C"/><path d="M237.53 153.26c-2.22 1.28-4.09-.05-4.67-2.34l-.67-3.11a15.4 15.4 0 0 0-2-3.59 10.1 10.1 0 0 1-1.77-3.71 3.9 3.9 0 0 1 1.2-3.76 1.19 1.19 0 0 1 .88-.31c.51.05.78.63.9 1.15a6.85 6.85 0 0 0 .24 1.55 3 3 0 0 0 1.83 1.39c1.73.71 3.59 1.34 4.8 2.75a6.54 6.54 0 0 1 1.38 4.61c-.1 1.63-.58 4.5-2.12 5.37z" class="E"/><path d="M214.6 163.96l-.71 3.27a3.7 3.7 0 0 0-.13 1.48 3.49 3.49 0 0 0 .93 1.61c3.32 3.8 6.24 4.12 11.15 3.71a34.68 34.68 0 0 0 8.43-1.71c-.4-4.19 0-9.92.78-11.69 2.06-4.75 4.6-11.05 1.65-14.64-2.39-2.9-6.75-2.62-9.41-2.54-2 0-4.31-.72-6.15.23s-3.17 3.19-4 4.83a29.5 29.5 0 0 0-1.35 3.11 1.12 1.12 0 0 0-.1.4.94.94 0 0 0 .23.52l1.19 1.74c-1.69 2.46-1.88 6.81-2.51 9.68z" class="D"/><path d="M225.66 126.6a2.35 2.35 0 0 0-.8.59 9.59 9.59 0 0 0-1.18 3l-1.55 4.4s-5.08.09-4-5c.55-2.68 2.24-5.18 5.18-5.44a7.91 7.91 0 0 1 2 .28 6.57 6.57 0 0 0 2.34 0c.3-.06.66-.13.88.08a.6.6 0 0 1 .06.72 1.53 1.53 0 0 1-.58.49c-.71.35-1.61.51-2.35.88z" class="E"/><path d="M229.81 125.87s-8.5-2.39-9.89 3.57a15.83 15.83 0 0 0-.43 3.76v1.29c.39 3.9 2.34 6.86 5.5 6.59 5.57-.45 11.47-12.23 4.82-15.21z" class="C"/><path d="M228.81 137.01a.55.55 0 0 0 .77 0h0a7 7 0 0 0-1.13 3.12c-.43 3.21 1.13 3.35 1.13 3.35-5.79 3.24-6.65 1-6.65 1a3.41 3.41 0 0 0 .21-3.62c2.63.72 5-2.38 5.45-4.14a.58.58 0 0 0 .22.29z" fill="#d68369"/><path d="M223.71 124.99c.45-.16.88-.08 1.33-.2a6.23 6.23 0 0 0 1.39-.75 6.42 6.42 0 0 1 3.72-.49 7 7 0 0 1 2.84.78 5.39 5.39 0 0 1 2.47 4 8.56 8.56 0 0 1-1 4.73 3.13 3.13 0 0 0-.32.78c-.19 1.11 1 1.91 1.46 3a12.66 12.66 0 0 1 .36 2.3c.35 1.61 1.8 2.71 2.77 4a5.45 5.45 0 0 1 1.13 3.89c-2.87-1.1-6.13-.71-9.07-1.63a4.57 4.57 0 0 1-1.77-.93 4.17 4.17 0 0 1-1.07-3.37 19.46 19.46 0 0 1 .48-2.62c.1-.5 0-1.4.51-1.73a6.06 6.06 0 0 1 .78-.45 2 2 0 0 0 1-1.75.86.86 0 0 0-.35-.78.77.77 0 0 0-.85.15c-.33.29-.29.64-.72.72a2.32 2.32 0 0 1-1.3-.4c-2.81-1.56-3.89-5.67-4.74-8.57.37-.07.54-.51.95-.68z" class="E"/><path d="M230.37 155.27c2.34-6.79 3.9-10.13 6.28-9.28 0 0 3.12 1.55 1.35 7.79-2 7-7.22 13.55-7.22 13.55l-2.43-5.35s.79-2.97 2.02-6.71z" class="C"/><path d="M205.62 180.16l1.35-1.56a1.07 1.07 0 0 0-.18.19 16.92 16.92 0 0 0-1.17 1.37z" fill="#dc9bd5"/><g class="B"><path d="M233.92 170.34l-9.89.89s-13 10.91-14.6 13.55c-3.83 6.13-7.55 4.39-2 13.35l11.1 17.92c1.88.63 3.89-1 4.44-3a10.45 10.45 0 0 0-.58-5.88l-3.35-11.58a3.48 3.48 0 0 1 0-2.65 3.41 3.41 0 0 1 1.2-1c1.32-.78 2.22-2.63 3.68-3.08a24.29 24.29 0 0 0 7-3.11 9.87 9.87 0 0 0 4.26-6.18c.54-3.03-.88-6.1-1.26-9.23z"/><path d="M224.01 171.26c-2.66.33-7-.89-7-.89-3.79 1.69-7.89 5.89-10 8.25h0c-.73.78-1.21 1.38-1.36 1.55h0l-.21.27c-2.34 3.11-3.81 6.78-5.26 10.4l-7.31 18.21a4.59 4.59 0 0 0-.44 1.82c.11 2.25 3.12 2.85 5.37 2.81l9.71-15.59s-1.84-5.56 2-13.34c1.37-2.79 14.62-13.55 14.62-13.55z"/></g><path d="M262.71,181.46c-2.66.33-7-.89-7-.89-3.79,1.69-7.89,5.89-10,8.25h0c-.73.78-1.21,1.38-1.36,1.55h0l-.21.27c-2.34,3.11-3.81,6.78-5.26,10.4l-7.31,18.21a4.59,4.59,0,0,0-.44,1.82c.11,2.25,3.12,2.85,5.37,2.81l9.71-15.59s-1.84-5.56,2-13.34c1.37-2.79,14.62-13.55,14.62-13.55Z" transform="translate(-38.7 -10.2)" fill="url(#B)"/><path d="M218.73 217.58l.73-1.62a10.3 10.3 0 0 1 1.56-1.23c.23-.2 1.56-1.33 1.48-1.65a18.29 18.29 0 0 0 1.19 3.11 3.3 3.3 0 0 1 .56 2 3 3 0 0 1-1.19 1.56c-2.08 1.71-4.55 3.33-7.22 3a.55.55 0 0 1-.44-.18.46.46 0 0 1-.1-.32c0-1.19 1.11-2 2-2.78a7.31 7.31 0 0 0 1.43-1.89z" class="C"/><path d="M223.8 217.09c-.5.16-.93.89-1.3 1.26a15.31 15.31 0 0 1-1.56 1.34 2.15 2.15 0 0 1-1.64.56c-.58-.12-1-.64-1.56-.82a1.75 1.75 0 0 0-1.49.26 4.07 4.07 0 0 0-1.1 1.09 7.47 7.47 0 0 0-1.51 3.78.58.58 0 0 0 .09.44.56.56 0 0 0 .26.17 3.35 3.35 0 0 0 2.54-.46 39.86 39.86 0 0 0 5.33-2.91 14.6 14.6 0 0 1 2.56-1.56.74.74 0 0 0 .44-.31.68.68 0 0 0 .06-.4c-.06-.73 0-2.89-1.12-2.44z" class="F"/><path d="M238.94 147.97c-.58-1.56-3.53-5.13-5.53-3.67a7 7 0 0 0-2.59 3.85c-.19.71-.26 1.47-.44 2.2-.24.9-.62 1.76-.78 2.67a10.9 10.9 0 0 0-.05 2.91q2.85-.4 5.68-.84l2.84-.45c.53-.08 1.61.13 1.86-.42a1.71 1.71 0 0 0 .06-1l-.23-1.61a17.53 17.53 0 0 0-.78-3.5.74.74 0 0 0-.04-.14z" class="D"/><g class="C"><path d="M210.46 160.53l1.39-1.6s14.81 2.33 16.95 3.18 2 5.21 2 5.21c-5.78 1.6-20.34-6.79-20.34-6.79z"/><path d="M213.12 160.97a.93.93 0 0 1-.29.46 1.48 1.48 0 0 1-.5.17c-1.05.25-1.86 1.08-2.85 1.47a4.69 4.69 0 0 1-3.17.55 9.47 9.47 0 0 1-2.71-1.32 5.07 5.07 0 0 1-1.37-1.11 1.72 1.72 0 0 1-.32-1.66c.32-.8 1.31-1.06 2.17-1.18a17.08 17.08 0 0 1 3.5-.15c1 .07 2 .38 3 .44 1.38.08 3.07.59 2.54 2.33z"/></g><path d="M117.15 175.8l-9.16 34.4a1.32 1.32 0 0 0 .94 1.62 1.75 1.75 0 0 0 .33 0h0a1.32 1.32 0 0 0 1.27-1l9.17-34.4a1.31 1.31 0 0 0-.94-1.6h-.06a1.31 1.31 0 0 0-1.55.98zm16.96 0l6.76 34.15a1.41 1.41 0 0 1-1.16 1.62h-.22a1.23 1.23 0 0 1-1.21-1l-6.77-34.15a1.4 1.4 0 0 1 1.06-1.6h0a1.22 1.22 0 0 1 1.51.83zm-10.81.14l-5.88 34.27a1.45 1.45 0 0 0 1.24 1.64h.18a1.18 1.18 0 0 0 1.18-1l5.89-34.27a1.44 1.44 0 0 0-1.1-1.6h0a1.19 1.19 0 0 0-1.51.82zm17.42.16l12 34.12a1.21 1.21 0 0 1-.68 1.56 1.33 1.33 0 0 1-.45.08h0a1.44 1.44 0 0 1-1.35-1l-12-34.12a1.19 1.19 0 0 1 .66-1.55h.15a1.44 1.44 0 0 1 1.67.91z" class="B"/><path d="M135.6 149.72c-3-5.29-7.07-10.52-12.89-12.28-3.6-1.08-7.46-.71-11.16-.07a21.31 21.31 0 0 0-7.92 2.6 8.74 8.74 0 0 0-4.33 6.83 13.11 13.11 0 0 0 1 4.71l5.48 15.77c.72 2.07 1.5 4.24 3.15 5.69a12.65 12.65 0 0 0 5.56 2.37c6.52 1.63 13.11 3.27 19.83 3.47s13.68-1.17 19.17-5.06c1.95-1.38 3.84-3.81 2.77-5.94-.82-1.66-3-2.1-4.83-2-4.85.2-6.26-.36-9.12-4.32-2.63-3.69-4.5-7.87-6.71-11.77z" class="F"/><path d="M152.11 153.32c-5.79 5.39-7 14.79-3.45 21.85 2.62 5.17 8 9.24 13.82 8.91a5 5 0 0 0 2.38-.63c1.6-1 1.93-3.15 2.1-5a33.47 33.47 0 0 0 0-9.27c-.53-2.8-1.78-5.45-2.1-8.29-.2-1.8 0-3.62-.11-5.43-.14-2.8-.76-5.71-3.92-5.76a12.86 12.86 0 0 0-8.72 3.62z" transform="translate(-38.7 -10.2)" fill="url(#C)"/><g class="D"><path d="M123.92 149.53a15.6 15.6 0 0 1 .06 2.9l-.35 3.49a38.68 38.68 0 0 1-1.63 6.88 3.54 3.54 0 0 0-.19 2.71 3.4 3.4 0 0 0 1.41 1.19c1.07.61 2 1.4 3 2a24.48 24.48 0 0 0 3.7 1.45c3.72 1.22 10.78 3.07 12.25-2.22 1.68-6 3.09-11.86 4.18-18a40 40 0 0 0 1.07-6.43c0-1.76-1.83-2.38-3.42-2.72l-.3-.06-.92-.18a45 45 0 0 1-6.23-1.84c-2.3-.83-5.93-2.27-8.92-.83a4.42 4.42 0 0 0-.6.34c-3.16 1.97-3.39 6.86-3.11 11.32z"/><path d="M155.64 159.5a31.32 31.32 0 0 0-2.61 2.28c-1.19 1.47-1.76 1.69-3.59.76a9.17 9.17 0 0 1-4-3.94 39.31 39.31 0 0 1-2.49-6.09 4.11 4.11 0 0 1 0-3.19l1.58-4.21c.43-1 2.92 1.56 3.18 1.89l4.29 5.63a43.25 43.25 0 0 1 7.17-2.52 1.4 1.4 0 0 1 .76 0 1.25 1.25 0 0 1 .58.66l2.3 4.31c-.34-.8-4.38 2.17-7.17 4.42z"/></g><path d="M131.74 151.55a8.33 8.33 0 0 0 1.2 3c.67 1 1.84 4.4 3.4 4a5.35 5.35 0 0 1-2.3.43c1.53 2 3.91 3.24 6.14 4.46a4.89 4.89 0 0 1 1.57 1.17 1.74 1.74 0 0 1 .29 1.83c-.52 1-2 .89-3.1.6l-8.2-2.07c-2.35-.46-5-.67-7 .68a1 1 0 0 1-.52.24.66.66 0 0 1-.61-.58 2 2 0 0 1 .14-.9 26 26 0 0 0 1.11-6.89c0-.94.28-1.83.3-2.73 0-1.12-.22-2.26-.24-3.38a30.43 30.43 0 0 1 .66-6.73c.32-1.55 1-3.32 2.56-3.68a3 3 0 0 1 3 1.31 6.87 6.87 0 0 1 1 3.23 58 58 0 0 0 .6 6.01z" fill="#d8dae1"/><path d="M127.66 137.8c3-1.44 6.62 0 8.92.83a43.13 43.13 0 0 0 6.22 1.84l.92.18c-1-.91-2.9-1.13-4.23-1.52l-6.05-1.57c-2.05-.47-4.14-.76-5.78.24z" class="D"/><path d="M136.23 132.31a4.38 4.38 0 0 0 5.29 2.73c0 0-1.07 3.07.17 4.95.23.36-1.37.68-1.46.69a6.57 6.57 0 0 1-2.62-.61 18.26 18.26 0 0 0-4-1.4 2.89 2.89 0 0 0 1.48-1.48 6.94 6.94 0 0 0 .28-4.54.59.59 0 0 0 .67-.06.54.54 0 0 0 .19-.28z" fill="#d68369"/><path d="M138.94 136.32c3 .94 5.46-1.49 6.64-5.11l.32-1.23a15.81 15.81 0 0 0 .4-3.69c-.06-6-8.66-5.53-8.66-5.53-6.99 1.44-3.88 13.94 1.3 15.56z" class="C"/><path d="M143.64 119.9a4.59 4.59 0 0 1 2.66 1.9 11 11 0 0 0 .9 1.52c.53.66 1.32 1.14 1.58 1.94a6 6 0 0 1-3.92-.78 1.12 1.12 0 0 1-.95.52 3.24 3.24 0 0 1-1.11-.23 1 1 0 0 0-.62-.06 1.07 1.07 0 0 0-.41.28 2.77 2.77 0 0 1-2.61.5c-.53-.17-1.06-.51-1.56-.35a1.64 1.64 0 0 0-.88 1.51c0 .37.17.72.18 1.1a3.47 3.47 0 0 1-.19 1.15 2.78 2.78 0 0 0-.72-.69 1 1 0 0 0-.95 0 .92.92 0 0 0-.3.29 1.87 1.87 0 0 0 .26 2.39l-.28 1.12a5.82 5.82 0 0 1-1.09-1.8 11.08 11.08 0 0 0-.88-2.14 5.91 5.91 0 0 1-.65-1 5.41 5.41 0 0 0-.27-.77c-.34-.63-.81-1.25-.6-2s1.1-1.36.92-2.14a2.64 2.64 0 0 0-.12-.44 1.15 1.15 0 0 1 .15-.63 5.92 5.92 0 0 1 4.12-3 13.13 13.13 0 0 1 5.26.14l5.21 1a.38.38 0 0 1 .37.17.31.31 0 0 1 0 .19c-.08.38-.44.62-.73.88s-.55.68-.34 1m-18.03 45.33s3.64 9.1 6.56 10.05l13.7 4.3 5.33 10.81c3 6.18 6.41 12.22 8.6 18.75a2.84 2.84 0 0 0 .57 1.12 2.88 2.88 0 0 0 2.51.44c1.83-.25 3.66-.5 5.46-.92.87-.21 1.93-.68 1.92-1.58s-1-1.33-1.76-1.61l-2.51-.87a2.62 2.62 0 0 1-2.22-2.35 27 27 0 0 1-.94-4.63c-.11-1.46-1.19-2.91-1.19-4.29l-8.05-23.2v-.09l-11.78-6z" class="E"/><use xlink:href="#O" fill="#4c506d"/><use xlink:href="#O" class="E"/><path d="M124.97 141.49s1.31 12.53 6 15.69 15.92-10.13 15.92-10.13l-3.59-2.91-9.26 4.72s-1.32-10.58-3.21-10.73-5.9 1.26-5.86 3.36z" class="D"/><path d="M148.16 139.72a3 3 0 0 1 1.46-.75 3.14 3.14 0 0 1 1.45.26c.92.3 1.94.82 2.12 1.76a2.22 2.22 0 0 1-.85 1.93c-.55.48-1.21.82-1.77 1.3-.79.68-1.38 1.66-2.36 2a3 3 0 0 1-1.29.14c-1.45-.13-3-1.35-2.16-2.85a15 15 0 0 1 3.4-3.79z" class="C"/><path d="M194.92 179.94a6.22 6.22 0 0 0-1.74-2.52 9.24 9.24 0 0 0-1.28-.68 10.59 10.59 0 0 0-1.59-.77.57.57 0 0 0-.26 0 .3.3 0 0 0-.2.33 1 1 0 0 0 .17.37 5.29 5.29 0 0 0 .95 1 3.06 3.06 0 0 1-2.61 0 5.25 5.25 0 0 0-3.43-.26 1.12 1.12 0 0 0-.55.38 1.38 1.38 0 0 0 .29 1.56 9.23 9.23 0 0 0 1.25 1.25 4.87 4.87 0 0 0 1.46 1 4.78 4.78 0 0 0 .93.18l1.82.23a4.92 4.92 0 0 1 1.51.37c.91.45 2 2.53 3.09 2.13.65-.22 1.57-.89 1.45-1.66a6.48 6.48 0 0 0-.63-1.33l-.63-1.58z" transform="translate(-38.7 -10.2)" fill="url(#D)"/><g class="G"><path d="M164 200.04a10 10 0 0 0 .79 4.11h.08l4.48.09a63.38 63.38 0 0 1 7.39 1l3.38.67 3.22.65 5.92 1a18.17 18.17 0 0 0 6.44-4.63l.56-.66.66-.92a7.11 7.11 0 0 0 1.18-3 4.42 4.42 0 0 0-.05-1.31 6.17 6.17 0 0 0-2.61-3.61l-.4-.29a15.28 15.28 0 0 0-9.28-2.7h-.83a28.07 28.07 0 0 0-5.22.89c-2.71.69-5.42 1.66-8.1 2.52a21.72 21.72 0 0 0-5.63 2.4 5 5 0 0 0-1.29 1.22 4.56 4.56 0 0 0-.69 2.57z"/><path d="M164.24 204.35q.52 2.7.93 5.42a125.73 125.73 0 0 1 1.27 12.71 2.77 2.77 0 0 1-.11 1.18c-.46 1.12-2 1.18-3.18 1.17s-2.78.48-2.76 1.68c0 .94 1 1.49 1.93 1.79a23.72 23.72 0 0 0 8.23 1.25 2.62 2.62 0 0 0 1-.16c1.9-.83.4-3 .2-4.32-.29-1.87.43-3.93.88-5.71 1.06-4.15 3.86-7.91 3.75-12.32a2.38 2.38 0 0 1 .29-1.63c.53-.65 2.74.4 3.44.54l3.22.65c5.77 1.12 11.1 2.41 17 1.31a2.35 2.35 0 0 0 1-.35 2.2 2.2 0 0 0 .72-1.19 10.42 10.42 0 0 0-.62-7.88c-1.44-2.85-3.74-4-6.42-5.34-3.1-1.57-5.71-2.75-9.28-2.65h-.83a28.19 28.19 0 0 0-5.24.92c-4.35 1.12-14.38 2.71-16 7.76-.53 1.59.13 2.87.45 4.42z"/></g><path d="M202.94,214.55q.52,2.7.93,5.42a125.73,125.73,0,0,1,1.27,12.71,2.77,2.77,0,0,1-.11,1.18c-.46,1.12-2,1.18-3.18,1.17s-2.78.48-2.76,1.68c0,.94,1,1.49,1.93,1.79a23.72,23.72,0,0,0,8.23,1.25,2.62,2.62,0,0,0,1-.16c1.9-.83.4-3,.2-4.32-.29-1.87.43-3.93.88-5.71,1.06-4.15,3.86-7.91,3.75-12.32a2.38,2.38,0,0,1,.29-1.63c.53-.65,2.74.4,3.44.54l3.22.65c5.77,1.12,11.1,2.41,17,1.31a2.35,2.35,0,0,0,1-.35,2.2,2.2,0,0,0,.72-1.19,10.42,10.42,0,0,0-.62-7.88c-1.44-2.85-3.74-4-6.42-5.34-3.1-1.57-5.71-2.75-9.28-2.65h-.83a28.19,28.19,0,0,0-5.24.92c-4.35,1.12-14.38,2.71-16,7.76-.53,1.59.13,2.87.45,4.42Z" transform="translate(-38.7 -10.2)" fill="url(#E)"/><g class="G"><path d="M156.03 204.8a20.4 20.4 0 0 0-3.34 5.74c-1 2.33-7 27.31-7.26 27.26l4.54 1.2a120.25 120.25 0 0 0 13-24c1-2.43 1-2.66 3.69-3.17 2.32-.46 4.64-.95 6.94-1.5a92.24 92.24 0 0 0 13.2-4.14 40.49 40.49 0 0 0 7.42-3.78 4.85 4.85 0 0 0 .9-.91 7.76 7.76 0 0 0 .32-.47 3.86 3.86 0 0 0 .56-2.22 2.52 2.52 0 0 0-.11-.61 5.31 5.31 0 0 0-2.32-2.7 10.87 10.87 0 0 0-5.49-2c-1.32-.08-2.65.19-4 .12s-2-.72-3-.88a6 6 0 0 0-2.38.21 29.26 29.26 0 0 0-5.07 2.29l-9.51 4.75h-.08l-1.9.95c-2 1-4.28 2-5.86 3.62z"/><path d="M138.74 236.64a5 5 0 0 0-2.35.74 1.93 1.93 0 0 0-.79 2.17 2.62 2.62 0 0 0 1.31 1.19 21.1 21.1 0 0 0 10.69 2.06 2.39 2.39 0 0 0 1.47-.4 2.55 2.55 0 0 0 .69-1.39 5.57 5.57 0 0 0 .2-3c-.6-2-2.83-1.56-4.41-1.65a36.94 36.94 0 0 0-6.81.28z"/></g><path d="M210.82 158.52c-.38.48-1 1-.74 1.54.12.3.46.45.72.64a3.33 3.33 0 0 1 1.12 2.28 7.88 7.88 0 0 0 .61 2.53 1.86 1.86 0 0 0 2.14 1c.48-.19.93-.67 1.42-.51s.54.56.76.89a2.59 2.59 0 0 0 2.59.9 7.56 7.56 0 0 0 2.62-1.22 2 2 0 0 0 .82-.79 1.56 1.56 0 0 0 0-1 8 8 0 0 0-1.68-2.58 11.84 11.84 0 0 1-2.33-5.21c-.23-1.32-.29-2.8-1.22-3.75-1.27-1.3-4-1-5.35.16s-.3 3.6-1.48 5.12z" transform="translate(-38.7 -10.2)" fill="url(#F)"/><path d="M173.83 142.02a1.65 1.65 0 0 0 .2.64c.34.56 1.3.92 1.88 1.24a2.73 2.73 0 0 1 1.29 1.56c.37 1.22-.16 2.65.34 3.84.17.23.56 0 .69-.21s.19-.58.42-.75c.39-.28.94.08 1.16.51a2.19 2.19 0 0 1-.94 2.85c.09.38.61.49 1 .4a3.85 3.85 0 0 1 1.16-.27c.91.08 1.37 1.35 2.28 1.39s1.58-1.41 2.26-2 1.91-.71 2.25-1.54c.16-.4.07-.91.4-1.19a1.62 1.62 0 0 1 .83-.23 2 2 0 0 0 1.41-1.31 3.11 3.11 0 0 0-.07-2 1.53 1.53 0 0 0-.39-.66 2.55 2.55 0 0 0-1-.39c-1.59-.45-2.72-1.81-3.91-3s-2.76-2.22-4.38-1.86a3.66 3.66 0 0 0-2.84-1.39 4 4 0 0 0-1.55.66 6.15 6.15 0 0 0-2 1.83 3.28 3.28 0 0 0-.49 1.88z" fill="#dd8049"/><path d="M181.79 154.85a24.54 24.54 0 0 0-2.74 1.76 2.31 2.31 0 0 0-.67.72 1.1 1.1 0 0 0 0 1c.31.43.88.21 1.32 0a17.25 17.25 0 0 1 6.43-1.56.8.8 0 0 0 .76-.42 1.09 1.09 0 0 0-.18-.89c-1.35-2.2-3.16-1.66-4.92-.61z" class="D"/><path d="M177.92 183.38a41.07 41.07 0 0 1-2.29-6.16c-.14-.46-.36-2.27-1.1-2.17-.39.06-1.09 1.89-1.31 2.26a27 27 0 0 1-7.49 8.16 3.23 3.23 0 0 1-1.82.77 3.43 3.43 0 0 1-2.31-1.37 66.41 66.41 0 0 1-8.17-10.57 59.3 59.3 0 0 1 4.92-3.72 11.71 11.71 0 0 0 5.69 4.7c1-2.76 1.54-6.38 3.21-8.75l3.34-4.95a5.61 5.61 0 0 1 1-1.27 5.23 5.23 0 0 1 1.92-.87 138.17 138.17 0 0 1 15.84-3.64 7.69 7.69 0 0 1 2.44-.16c2.28.34 3.78 2.49 4.93 4.49 6 10.43 10.28 22.27 9.61 34.29a6.59 6.59 0 0 1-.31 1.92 5.51 5.51 0 0 1-1.86 2.33 15.66 15.66 0 0 1-9.63 2.94c-5.1 0-11.83-1.49-15.63-5.16-2.16-2.07 0-3.32 1-5.37 1.33-2.63-.83-5.35-1.98-7.7z" class="B"/><path d="M242 185.14a24.47 24.47 0 0 0-1.57-4.65c-3 2.12-5.15 6.26-6.25 9.74s-2 7.15-4.23 10l-2.42-.84-.45 1.53c-.36 1.21.66 2.44.56 3.66a3.31 3.31 0 0 1-2.49 2.6 8.16 8.16 0 0 1-4.27-.3 6.41 6.41 0 0 1-2.5-1.08 2.38 2.38 0 0 1-.9-2.42 1.54 1.54 0 0 0-.67 1.76 3.49 3.49 0 0 0 1.16 1.64 19 19 0 0 0 6 3.11 22.48 22.48 0 0 0 3.07 1 31.06 31.06 0 0 0 7.32.75c1.49 0 2.39-.2 3-1.68.94-2.1 1-4.48 1.24-6.78a118.88 118.88 0 0 1 3.4-18.04z" transform="translate(-38.7 -10.2)" fill="url(#G)"/><path d="M224.5 181.1a13.16 13.16 0 0 1-1 4.71l-.35 1q-2.55 7.4-5.13 14.78c-.72 2.07-1.5 4.24-3.15 5.69a12.88 12.88 0 0 1-5.56 2.37c-6.52 1.63-13.11 3.27-19.83 3.46a35.75 35.75 0 0 1-12.9-1.84h0a25.92 25.92 0 0 1-6.26-3.21c-2-1.38-3.84-3.81-2.77-5.95.82-1.65 3-2.09 4.83-2 4.85.2 6.26-.36 9.12-4.33 2.63-3.65 4.5-7.79 6.71-11.7 3-5.29 7.07-10.52 12.89-12.27 3.6-1.09 7.46-.71 11.16-.08a21.33 21.33 0 0 1 7.92 2.61 8.74 8.74 0 0 1 4.32 6.76z" class="F"/><path d="M261.83 197q-2.55 7.4-5.13 14.78c-.72 2.07-1.5 4.24-3.15 5.69a12.88 12.88 0 0 1-5.56 2.37c-6.52 1.63-13.11 3.27-19.83 3.46a35.75 35.75 0 0 1-12.9-1.84h0a26.9 26.9 0 0 1-2.58-2.65c-.55-.67-1.1-1.6-.65-2.33s1.31-.71 2.08-.72a19.12 19.12 0 0 0 15.7-9.06 49.7 49.7 0 0 0 3.34-7.54c2.15-5.34 5.15-10.67 10.07-13.69a8.49 8.49 0 0 1 5.17-1.48 10.52 10.52 0 0 1 3.24 1c4.16 1.86 9.79 5.43 10.22 10.53a8.13 8.13 0 0 1-.02 1.48z" transform="translate(-38.7 -10.2)" fill="url(#H)"/><path d="M206.64 210.14l9.15 34.4a1.32 1.32 0 0 1-1 1.61 1.12 1.12 0 0 1-.32 0h0a1.32 1.32 0 0 1-1.27-1l-9.11-34.35a1.32 1.32 0 0 1 .92-1.61h0a1.33 1.33 0 0 1 1.63.95zm-16.96-.01l-6.77 34.16a1.41 1.41 0 0 0 1.16 1.62h.23a1.2 1.2 0 0 0 1.2-1l6.8-34.11a1.41 1.41 0 0 0-1.06-1.6h0a1.22 1.22 0 0 0-1.53.82zm10.82.14l5.88 34.28a1.46 1.46 0 0 1-1.27 1.63h-.16a1.18 1.18 0 0 1-1.18-1l-5.89-34.27a1.44 1.44 0 0 1 1.1-1.6h0a1.2 1.2 0 0 1 1.49.81zm-17.44.16l-12 34.12a1.21 1.21 0 0 0 .68 1.56 1.39 1.39 0 0 0 .46.08h0a1.44 1.44 0 0 0 1.35-1l12-34.11a1.21 1.21 0 0 0-.68-1.56h-.13a1.43 1.43 0 0 0-1.68.91zm44.38-107.38c-2.63 0-6.51-1.8-8.39 1a11.63 11.63 0 0 0-.82 1.66c-1.55 3.27-5 5.16-8.31 6.61 2-2.49 3.76-5.49 3.44-8.66-.33-3.35-4.3-3.44-6.86-4.53a32.84 32.84 0 0 1-7.48-4.33c-3.59-2.84-6.59-6.87-6.59-11.62 0-11 15.68-19.9 35-19.9s35 8.91 35 19.9-15.65 19.87-34.99 19.87zm-105.4 1.48a41.75 41.75 0 0 1-5.48 0c-2.21-.3-4.34-.81-3.83 2.66.6 4 4.23 6.9 5.83 10.65-7.59-1.89-13.22-6.26-18.44-11.85-2.32-2.49-6.3-1.46-9.57-1.46h-5.62a24.26 24.26 0 1 1 0-48.52h37.11c13.398 0 24.26 10.862 24.26 24.26s-10.862 24.26-24.26 24.26z" class="B"/><path d="M162.14 149.5a1.62 1.62 0 0 1 .39-.91c.3-.25.75-.17 1.14-.15 1.67.07 3-1.3 4.37-2.24a.38.38 0 0 1 .23-.08c.09 0 .15.11.2.19.76 1.4.19 3.15-.62 4.51s-1.86 2.48-3.31 2.54a12.45 12.45 0 0 0-2.72-.18c-.58.13-1 .49-1.27-.21-.56-1.25 1.31-2.37 1.59-3.47z" class="C"/><path d="M177.89 181.61a4.75 4.75 0 0 1-.31 1.75 8.7 8.7 0 0 1 3.22-1l1.58-.29a1.16 1.16 0 0 1 .93.09.92.92 0 0 1 .23.92 3.59 3.59 0 0 1-.9 1.51 15.7 15.7 0 0 1-1.6 1.56 5 5 0 0 1-1.27.8c-1.11.4-2.34 0-3.52.1a4.31 4.31 0 0 1-.88 0 1.37 1.37 0 0 1-1.08-.9c-.42-1.23.74-1.69 1.39-2.42s1.19-1.81 2.21-2.12z" transform="translate(-38.7 -10.2)" fill="url(#I)"/><path d="M129.15 192.18a8.34 8.34 0 0 1-.67 3.48h-.07l-3.79.08a52.84 52.84 0 0 0-6.27.88l-2.86.56-2.74.56-5 .86a15.33 15.33 0 0 1-5.46-3.93l-.48-.56c-.16-.19-.38-.51-.56-.78a5.9 5.9 0 0 1-1-2.54 3.45 3.45 0 0 1 0-1.11 5.25 5.25 0 0 1 2.22-3l.34-.25a13 13 0 0 1 7.87-2.29h.7a24.58 24.58 0 0 1 4.43.76c2.29.58 4.59 1.41 6.86 2.13a18.35 18.35 0 0 1 4.77 2 3.39 3.39 0 0 1 1.71 3.15z" class="G"/><path d="M168.27 213.31l-.79 4.59-.8 6.36c-.34 2.1-.28 4.18-.63 6.25a11.6 11.6 0 0 0-.27 2.35 10 10 0 0 0 .83 3.18c-.06.14-.26.13-.41.09a10.9 10.9 0 0 1-2.42-.86 3.59 3.59 0 0 1-1.73-1.83c-.66-1.71.13-3.62-.37-5.41a22 22 0 0 1-1.1-6.79 44 44 0 0 0 .32-5c-.23-2.86-2-5.74-1-8.42a5.64 5.64 0 0 1 4.59-3.26 3.8 3.8 0 0 1 1.89.16c3 1.2 2.48 5.66 2 8z" transform="translate(-38.7 -10.2)" fill="url(#J)"/><path d="M122.64 223.2a.44.44 0 0 1 .15-.12c.23-.1.45.17.58.39a5.06 5.06 0 0 0 2.44 2.08.56.56 0 0 0 .4.05c.15-.06.23-.22.35-.33a.69.69 0 0 1 .66-.11 2 2 0 0 1 .61.33 12.83 12.83 0 0 1 1.64 1.3 1 1 0 0 1 .35 1 .82.82 0 0 1-.45.37 3.23 3.23 0 0 1-2.17-.08c-1.3-.43-2.44-1.21-3.71-1.72a.67.67 0 0 0-.28-.06l-.21.05a.75.75 0 0 1-.56-.36 2 2 0 0 1 .2-2.79z" class="G"/><path d="M174.35 214.08a11.46 11.46 0 0 1 .78 4.52c0 4-1.1 7.82-2.17 11.63-.45 1.6-.83 3.25-1.36 4.83s.64 4.34 1.49 5.69a3.57 3.57 0 0 1 .5.92.89.89 0 0 1-.29 1 1.12 1.12 0 0 1-.6.13 8.59 8.59 0 0 1-4.78-1.82 1.35 1.35 0 0 1-.76-1.51c.5-8.78 3-17.23-3-24.78-1.38-1.74-3.11-3.33-3.7-5.46a1.89 1.89 0 0 1 0-1 1.56 1.56 0 0 1 .63-.76c1.37-1 3.24-.87 4.89-.49a11.56 11.56 0 0 1 8.37 7.1z" transform="translate(-38.7 -10.2)" fill="url(#K)"/><path d="M129.14 231.8c1.28.41 2.29 1.36 3.53 1.86a12.41 12.41 0 0 0 3.55 1.2 1.26 1.26 0 0 0 .61 0 1 1 0 0 0 .43-1.35h0a4.83 4.83 0 0 0-1-1.25 10.45 10.45 0 0 1-1-1.3c-.26-.38-.53-1-1-1.15s-1.09.2-1.54.27a2.9 2.9 0 0 1-1.86-.44 6.84 6.84 0 0 1-1.45-1.29c-.22-.25-.54-.54-.85-.41s-.34.44-.37.72l-.13 2a1.06 1.06 0 0 0 .09.61c.15.32.61.42.99.53z" class="G"/><path d="M129.74 188.18a14.87 14.87 0 0 1 7.06 12.39 35 35 0 0 1-13.88 6.29 3.1 3.1 0 0 1-1.76 0 3.68 3.68 0 0 1-1.22-1c-4.61-4.74-12.73-4.26-17.57-8.76-1.83-1.71-3-4.65-1.58-6.69a6.73 6.73 0 0 1 2.14-1.75c3.77-2.24 8.21-5.59 12.76-4.81s10.12 1.95 14.05 4.33z" class="B"/><g transform="translate(-38.7 -10.2)"><path d="M170.22,214.29c-2.31-2.47-2.73-6.09-3-9.46a8.76,8.76,0,0,1-2.21,1.39l-.39-1.05a.46.46,0,0,0-.19-.26.58.58,0,0,0-.32,0,32.36,32.36,0,0,1-10.18,1.71,6.55,6.55,0,0,1-3.82-.86,2.58,2.58,0,0,1-.85-3.46,59,59,0,0,1-8.53,1.66.87.87,0,0,0-.63.24c-.22.29,0,.7.19,1a15.36,15.36,0,0,0,9.71,6.2c1.09.19,6.87,2.35,9.47,5.74a1.5,1.5,0,0,0,1.52.48Z" fill="url(#L)"/><path d="M159.73 154.19a3.52 3.52 0 0 0-1-.56 3.4 3.4 0 0 0-3.52.45c-.79.81-.84 2.07-1 3.19a9.91 9.91 0 0 1-2 4.41 6.91 6.91 0 0 0-1.43 2.19 1.37 1.37 0 0 0 0 .85 1.88 1.88 0 0 0 .7.67 6.55 6.55 0 0 0 2.14 1c.49.14 1.12.67 1.6.51s.72-.74 1.16-1a2.19 2.19 0 0 1 1.72.07 1.69 1.69 0 0 0 1.68-.16 1.81 1.81 0 0 0 .33-.61 8.45 8.45 0 0 0 .4-1.86 2.82 2.82 0 0 1 .55-1.84 1.64 1.64 0 0 0 .29-.3c.22-.38-.15-.82-.33-1.22a2.89 2.89 0 0 1-.16-1.17c-.04-1.53.27-3.54-1.13-4.62z" fill="url(#M)"/></g><g class="D"><path d="M109.9 154.4a.9.9 0 0 0-.15.76.7.7 0 0 0 .64.35 14.45 14.45 0 0 1 5.45 1.32c.37.18.86.37 1.12 0a.9.9 0 0 0 0-.87 2 2 0 0 0-.57-.61 23.45 23.45 0 0 0-2.32-1.49c-1.49-.88-3.02-1.34-4.17.54z"/><path d="M115.65 184.54c.87 1.74 2.7 2.8.87 4.55-3.22 3.11-8.93 4.41-13.25 4.37a13.27 13.27 0 0 1-8.17-2.49 4.67 4.67 0 0 1-1.57-2 5.23 5.23 0 0 1-.26-1.62c-.57-10.19 3-20.23 8.14-29.07 1-1.7 2.25-3.52 4.18-3.81a6.86 6.86 0 0 1 2.07.13 120 120 0 0 1 13 3c3.2.93 5.51 4.36 6.53 7.41.89 2.62 1.23 5.4 2 8a2.14 2.14 0 0 0 .82 1.31 2 2 0 0 0 1.5.06 32.47 32.47 0 0 0 4.53-1.29 19.31 19.31 0 0 1 1.55 5.43 26.89 26.89 0 0 0-3.08 2.86 10.64 10.64 0 0 1-7.92 2.69 3.94 3.94 0 0 1-2.7-1.11 4.55 4.55 0 0 1-.81-1.79q-.67-2.38-1.18-4.81a77.37 77.37 0 0 1-.5-2.65c-.1-.56 0-2.16-.41-2.57-1.08-1.25-1.53 1.46-1.72 2.06a34.69 34.69 0 0 1-1.92 4.79c-.97 2.05-2.8 4.36-1.7 6.55z"/></g><path d="M122.3 144.3a3.58 3.58 0 0 0 .07-2 6.76 6.76 0 0 0-1.47-2.61 8.58 8.58 0 0 0-5-3.25c-5.4-.88-11.68 4.63-13.73 9.18-1.29 2.86-1.68 6-2.4 9.09s-1.89 6.18-4.31 8.19c-1 .82-2.17 1.46-2.76 2.59a4.16 4.16 0 0 0 .66 4.36 11.12 11.12 0 0 0 3.1 2.3 7.13 7.13 0 0 1 2.33 2.83c1.24 2.4 1.73 5.14 3.26 7.4l2.21-1.22a20.39 20.39 0 0 0 5.18-3.6 7 7 0 0 0 2.08-5.74 27.21 27.21 0 0 0-1.29-3.61c-1.24-3.83 1.47-5.37 3.83-7.64a7.1 7.1 0 0 0 2-6.16 4 4 0 0 1-.13-1.51 4.64 4.64 0 0 1 1.22-1.86c1-1.22.21-2.8 1.4-3.92.92-.87 2.33-1 3.2-2a2.42 2.42 0 0 0 .55-.82z" class="E"/><path d="M134.5 181.1a20.08 20.08 0 0 1 1.33-3.94c2.52 1.79 4.37 5.3 5.3 8.26s1.69 6.05 3.59 8.5l2.05-.71.38 1.3c.3 1-.56 2.07-.47 3.1a2.79 2.79 0 0 0 2.11 2.21 7.07 7.07 0 0 0 3.62-.26 5.32 5.32 0 0 0 2.11-.92 2 2 0 0 0 .77-2 1.33 1.33 0 0 1 .56 1.5 3 3 0 0 1-1 1.39 16.3 16.3 0 0 1-5 2.63 26.74 26.74 0 0 1-2.61.89 27 27 0 0 1-6.2.63c-1.27 0-2-.17-2.59-1.42a18.2 18.2 0 0 1-1-5.75 102.08 102.08 0 0 0-2.95-15.41z" transform="translate(-38.7 -10.2)" fill="url(#N)"/><path d="M87.3 199.13l-12.63 33.29a1.33 1.33 0 0 0 .78 1.7 1.65 1.65 0 0 0 .32.07h0a1.31 1.31 0 0 0 1.36-.84l12.64-33.28a1.3 1.3 0 0 0-.76-1.69h0a1.3 1.3 0 0 0-1.69.76zm16.89 1.73l3.24 34.67a1.42 1.42 0 0 1-1.34 1.49h-.21a1.22 1.22 0 0 1-1.1-1.09l-3.24-34.66a1.41 1.41 0 0 1 1.22-1.49h0a1.22 1.22 0 0 1 1.42 1s.01.02.01.08zm-10.77-.96l-9.36 33.49a1.45 1.45 0 0 0 1.07 1.75h.18a1.16 1.16 0 0 0 1.27-.85l9.37-33.49a1.45 1.45 0 0 0-.93-1.71h0a1.19 1.19 0 0 0-1.55.66.88.88 0 0 0-.05.15zm17.32 1.9l8.48 35.17a1.19 1.19 0 0 1-.8 1.48 1.17 1.17 0 0 1-.49 0h0a1.45 1.45 0 0 1-1.24-1.1l-8.5-35.18a1.19 1.19 0 0 1 .83-1.47h.17a1.44 1.44 0 0 1 1.55 1.1z" class="B"/><path d="M108.3 175.07c-2.44-5.57-5.94-11.18-11.56-13.53-3.46-1.44-7.34-1.47-11.09-1.21a21.58 21.58 0 0 0-8.15 1.77 8.77 8.77 0 0 0-5 6.32 13.14 13.14 0 0 0 .53 4.79l3.84 16.24c.5 2.14 1.06 4.37 2.55 6a12.86 12.86 0 0 0 5.29 2.94c6.32 2.28 12.71 4.59 19.37 5.47s13.73.24 19.58-3.06c2.09-1.18 4.22-3.4 3.38-5.64-.66-1.73-2.76-2.39-4.61-2.5-4.84-.3-6.18-1-8.62-5.24-2.23-3.93-3.66-8.23-5.51-12.35z" class="F"/></g><path d="M389.233 251.552c0-5.613-.297-10.743-.89-15.39 0-.727.503-1.09 1.51-1.09s2.34.963 4 2.89c1.667 1.92 3.263 4.023 4.79 6.31 1.527 2.293 3.06 4.4 4.6 6.32 1.54 1.927 2.64 2.89 3.3 2.89s1.727-1.013 3.2-3.04a90.88 90.88 0 0 0 4.37-6.66 53.75 53.75 0 0 1 4.68-6.66c1.68-2.027 3.03-3.04 4.05-3.04 1.027 0 1.54.277 1.54.83.313 4.267.47 8.08.47 11.44l-.06 8.19-.07 4.58-.19 6.5-.15 5.95a2.47 2.47 0 0 1-2.13 1.1c-.387 0-.753-.107-1.1-.32-.207-4.26-.31-9.287-.31-15.08l.16-17.99c-.693.553-1.673 1.847-2.94 3.88l-3.67 6.03c-1.173 1.993-2.507 3.797-4 5.41-1.493 1.607-2.88 2.41-4.16 2.41s-2.743-.933-4.39-2.8c-1.647-1.873-3.467-4.413-5.46-7.62s-3.303-5.21-3.93-6.01c.173 2.913.26 5.94.26 9.08l-.05 6.57-.31 15.14c-.56.727-1.427 1.09-2.6 1.09a2.48 2.48 0 0 1-.89-.16l.37-20.75zm45.018 10.14c-.067.693-.1 1.163-.1 1.41 0 2.08.63 3.69 1.89 4.83a6.48 6.48 0 0 0 4.5 1.72c1.733 0 3.147-.243 4.24-.73s1.883-1.007 2.37-1.56c1.247-1.56 2.39-2.34 3.43-2.34.38 0 .83.103 1.35.31-.347 1.7-1.657 3.253-3.93 4.66-2.267 1.4-5.117 2.1-8.55 2.1-2.427 0-4.517-.77-6.27-2.31-1.747-1.54-2.62-3.647-2.62-6.32a19.92 19.92 0 0 1 1.58-7.77c1.06-2.513 2.587-4.663 4.58-6.45s4.02-2.68 6.08-2.68c2.067 0 3.733.427 5 1.28 1.26.847 1.89 2.083 1.89 3.71 0 3.02-1.343 5.51-4.03 7.47-2.687 1.953-5.537 2.93-8.55 2.93-.8 0-1.753-.087-2.86-.26m3.95-1.71a6.74 6.74 0 0 0 4.37-1.56c1.28-1.04 2.19-2.133 2.73-3.28.54-1.14.81-2.18.81-3.12 0-.933-.367-1.757-1.1-2.47-.727-.707-1.573-1.06-2.54-1.06-1.733 0-3.337 1.193-4.81 3.58-1.473 2.393-2.523 4.873-3.15 7.44 1.527.313 2.757.47 3.69.47zm23.08 7.17l.16 2.97c0 .76-.217 1.287-.65 1.58-.433.3-.867.45-1.3.45s-.877-.07-1.33-.21c-.76-4.02-1.34-9.03-1.74-15.03l-.7-10.19c.52-.487 1.067-.73 1.64-.73s1.083.07 1.53.21c.14 1.007.243 3.223.31 6.65.073 3.433.16 5.583.26 6.45.487-2.913 1.353-5.633 2.6-8.16.693-1.42 1.603-2.557 2.73-3.41 1.127-.847 2.34-1.27 3.64-1.27s2.497.58 3.59 1.74 1.64 2.21 1.64 3.15c0 .347-.207.613-.62.8a3.26 3.26 0 0 1-1.38.29c-.507 0-.897-.19-1.17-.57a3.36 3.36 0 0 1-.57-1.28c-.107-.467-.333-.89-.68-1.27s-.813-.57-1.4-.57c-1.56 0-2.897 1.403-4.01 4.21-1.7 4.193-2.55 8.923-2.55 14.19zm15.911-5.66l.47-23.3c0-1.8-.103-3.03-.31-3.69.62-.553 1.573-.83 2.86-.83.52 3.707.78 8.473.78 14.3 0 1.733-.157 5.753-.47 12.06 1.627-8.773 4.537-13.16 8.73-13.16 1.493 0 2.647.79 3.46 2.37s1.327 3.497 1.54 5.75l.52 6.76c.347 5.407 1.317 8.11 2.91 8.11.033 0 .363-.103.99-.31 1.387-.42 2.167-.527 2.34-.32 0 .387-.54.863-1.62 1.43-1.073.573-2.06.86-2.96.86-1.527 0-2.697-.787-3.51-2.36-.813-1.58-1.317-3.497-1.51-5.75a153.7 153.7 0 0 1-.41-6.73c-.087-2.24-.323-4.147-.71-5.72-.38-1.58-1.02-2.37-1.92-2.37-1.107 0-2.12 1.203-3.04 3.61-.92 2.413-1.64 5.077-2.16 7.99-.52 2.907-1.153 5.567-1.9 7.98-.747 2.407-1.5 3.61-2.26 3.61-1.213 0-1.82-3.43-1.82-10.29zm41.49-4.22l-.26 5.98c0 3.02.347 5.05 1.04 6.09.413.693.987 1.04 1.72 1.04.207 0 .5-.053.88-.16.727-.207 1.333-.103 1.82.31-.24 1.213-1.453 1.82-3.64 1.82-1.493 0-2.48-.623-2.96-1.87-.387-.933-.667-2.103-.84-3.51-.173-1.4-.31-2.36-.41-2.88-2.253 4.293-4.437 6.91-6.55 7.85-1.08.487-2.33.73-3.75.73s-2.52-.687-3.3-2.06c-.78-1.367-1.17-3.367-1.17-6 0-2.64.433-5.407 1.3-8.3s2.133-5.337 3.8-7.33c1.66-1.993 3.48-2.99 5.46-2.99 2.84 0 4.727 1.18 5.66 3.54.8 2.007 1.2 4.587 1.2 7.74m-12.74-1.69l-.36 1.42c-.247.947-.49 2.26-.73 3.94-.247 1.68-.37 3.17-.37 4.47s.27 2.42.81 3.36c.54.933 1.243 1.4 2.11 1.4 1.867 0 3.667-1.767 5.4-5.3 1.733-3.54 2.6-6.833 2.6-9.88 0-1.98-.52-3.61-1.56-4.89-.693-.833-1.603-1.25-2.73-1.25s-2.147.65-3.06 1.95c-.92 1.3-1.623 2.893-2.11 4.78zm20.273-20.72c.42-.76 1.183-1.14 2.29-1.14a2.79 2.79 0 0 1 .73.1c.067 1.84.1 6.97.1 15.39a33.14 33.14 0 0 1 .5-.46l.54-.52a39.66 39.66 0 0 1 .52-.5c.28-.26.497-.433.65-.52.16-.087.377-.223.65-.41.28-.193.523-.333.73-.42a24.08 24.08 0 0 1 .73-.29c.52-.173 1.127-.26 1.82-.26 2.567 0 4.63 1.067 6.19 3.2a11.82 11.82 0 0 1 2.34 7.15c0 2.633-.4 5.14-1.2 7.52-.8 2.373-2.03 4.443-3.69 6.21-1.667 1.767-3.6 2.65-5.8 2.65s-4.037-.813-5.51-2.44c-1.473-1.633-2.21-3.497-2.21-5.59 0-2.1.12-5.983.36-11.65l.37-12.22c0-2.48-.037-4.413-.11-5.8m7.44 35.15c1.353 0 2.567-.64 3.64-1.92 2.18-2.533 3.27-6.12 3.27-10.76 0-2.5-.483-4.71-1.45-6.63-.973-1.927-2.343-2.89-4.11-2.89-1.007 0-1.89.493-2.65 1.48-.767.987-1.357 2.297-1.77 3.93-.8 3.087-1.2 6.517-1.2 10.29 0 3.193.66 5.153 1.98 5.88.587.347 1.35.553 2.29.62zm31.869-12.74l-.26 5.98c0 3.02.347 5.05 1.04 6.09.413.693.987 1.04 1.72 1.04.207 0 .5-.053.88-.16.727-.207 1.333-.103 1.82.31-.24 1.213-1.453 1.82-3.64 1.82-1.493 0-2.48-.623-2.96-1.87-.387-.933-.667-2.103-.84-3.51-.173-1.4-.31-2.36-.41-2.88-2.253 4.293-4.437 6.91-6.55 7.85-1.08.487-2.33.73-3.75.73s-2.52-.687-3.3-2.06c-.78-1.367-1.17-3.367-1.17-6 0-2.64.433-5.407 1.3-8.3s2.133-5.337 3.8-7.33c1.66-1.993 3.48-2.99 5.46-2.99 2.84 0 4.727 1.18 5.66 3.54.8 2.007 1.2 4.587 1.2 7.74m-12.74-1.69l-.36 1.42c-.247.947-.49 2.26-.73 3.94-.247 1.68-.37 3.17-.37 4.47s.27 2.42.81 3.36c.54.933 1.243 1.4 2.11 1.4 1.867 0 3.667-1.767 5.4-5.3 1.733-3.54 2.6-6.833 2.6-9.88 0-1.98-.52-3.61-1.56-4.89-.693-.833-1.603-1.25-2.73-1.25s-2.147.65-3.06 1.95c-.92 1.3-1.623 2.893-2.11 4.78zm21.263-18.64c.033-.413.277-.75.73-1.01.447-.26.95-.39 1.51-.39.933 0 1.4.347 1.4 1.04-.067 10.227-.327 17.903-.78 23.03-.033.387-.303.71-.81.97-.5.26-.993.39-1.48.39-.867 0-1.3-.347-1.3-1.04.487-5.1.73-12.763.73-22.99m.42 31.72a8.03 8.03 0 0 1 1.37-.1c.54 0 1.103.207 1.69.62.593.42.89.993.89 1.72s-.373 1.393-1.12 2-1.44.91-2.08.91-1.323-.233-2.05-.7c-.733-.467-1.1-.96-1.1-1.48 0-1.667.8-2.657 2.4-2.97zm298.479-25.021c.527-.844 1.336-1.265 2.425-1.265a2.21 2.21 0 0 1 1.16.316 176.89 176.89 0 0 1 .369 11.336c0 3.726-.079 8.454-.237 14.183l-.29 11.125c-.844.562-1.529.844-2.056.844s-.932-.053-1.213-.158a50.58 50.58 0 0 1-.316-5.694l.316-12.022c-3.023-.281-6.398-.422-10.124-.422s-7.61.369-11.653 1.107l-.422 15.396c-.879.703-1.591 1.055-2.135 1.055s-.975-.088-1.292-.264c-.105-1.722-.158-4.148-.158-7.276s.22-8.304.659-15.528l.712-12.523c.457-.738 1.248-1.107 2.373-1.107a2.44 2.44 0 0 1 1.002.211c.105.984.158 2.232.158 3.744s-.105 3.823-.316 6.934-.316 5.264-.316 6.459c4.253-.703 8.19-1.055 11.811-1.055s6.819.123 9.596.369c.105-1.301.158-3.216.158-5.747s-.07-5.87-.211-10.018zm14.813-2.742a62.55 62.55 0 0 0-.053 2.689c0 .984.053 2.004.158 3.058-.492.562-1.16.844-2.004.844-1.055 0-1.582-.844-1.582-2.531v-.791c0-.457.009-.87.026-1.239a8.1 8.1 0 0 1 .184-1.292c.246-.844.791-1.265 1.635-1.265s1.388.176 1.635.527m-3.375 25.836c0-6.89.352-10.862 1.055-11.916.246-.387.545-.58.896-.58s.932.193 1.74.58c-.176 2.988-.264 6.239-.264 9.754l.105 11.653c0 1.09-.237 1.854-.712 2.294s-.914.659-1.318.659-.817-.105-1.239-.316c-.176-4.57-.264-8.612-.264-12.127zm11.81-22.831c.035-.422.281-.765.738-1.028a3.01 3.01 0 0 1 1.529-.395c.949 0 1.424.352 1.424 1.055-.07 10.37-.334 18.156-.791 23.358-.035.387-.308.712-.817.975s-1.011.395-1.503.395c-.879 0-1.318-.352-1.318-1.055.492-5.167.738-12.936.738-23.305m.422 32.163c.387-.07.852-.105 1.397-.105s1.116.211 1.714.633a2.01 2.01 0 0 1 .896 1.74c0 .738-.378 1.415-1.134 2.03s-1.459.923-2.109.923-1.345-.237-2.083-.712-1.107-.975-1.107-1.503c0-1.687.808-2.689 2.425-3.005z" fill="#333"/></svg>